<svg id="e4xgem3acbbd1" xmlns="http://www.w3.org/2000/svg" xmlns:xlink="http://www.w3.org/1999/xlink" viewBox="0 0 98.550000 386" shape-rendering="geometricPrecision" text-rendering="geometricPrecision"><g id="e4xgem3acbbd2"><path id="e4xgem3acbbd3" d="M1082.140000,613.300000C1079.937751,613.250358,1077.860982,612.264711,1076.430000,610.590000C1068.580000,601.760000,1068.990000,573.260000,1069.430000,542.880000C1069.520000,535.880000,1069.600000,528.540000,1069.600000,521.500000C1069.600000,493.550000,1077.600000,475.880000,1086.220000,457.130000C1091.090000,446.490000,1096.050000,435.570000,1100.100000,422.050000C1111.430000,384.270000,1097.710000,298.340000,1097.100000,294.640000L1096.930000,293.560000L1033.860000,293.560000L1033.690000,294.640000C1033.110000,298.340000,1019.470000,384.100000,1030.690000,422.050000C1034.690000,435.570000,1039.690000,446.490000,1044.570000,457.130000C1053.170000,475.880000,1061.190000,493.550000,1061.190000,521.500000C1061.190000,528.500000,1061.270000,535.840000,1061.360000,542.880000C1061.770000,573.170000,1062.260000,601.760000,1054.360000,610.590000C1052.932396,612.256432,1050.844295,613.210888,1048.650000,613.200000L1048.650000,613.300000C1029.650000,614.300000,1016,616.900000,1016,619.960000C1016,623.840000,1038.160000,626.960000,1065.270000,626.960000C1092.550000,626.960000,1114.540000,623.800000,1114.540000,619.960000C1114.870000,616.810000,1101.230000,614.190000,1082.140000,613.300000ZM1049.700000,354.930000C1045.030000,355.530000,1038.910000,355.160000,1034.700000,357.360000C1035.410000,356.990000,1034.600000,348.180000,1034.600000,347.150000C1034.600000,346.120000,1034.140000,340,1034.430000,337.740000L1034,337.740000L1037.540000,304.460000L1092.230000,304.460000L1096.090000,337.640000L1095.560000,337.640000C1096.060000,339.640000,1095.390000,346.300000,1095.390000,347.340000C1095.390000,348.380000,1094.680000,357.200000,1095.290000,357.550000C1091.490000,355.380000,1086.450000,354.550000,1082.160000,353.820000C1077.160000,353,1071.810000,353.270000,1066.730000,353.460000C1061,353.680000,1055.370000,354.210000,1049.700000,354.930000Z" transform="matrix(1 0 0 1 -1016 -241)" fill="rgb(56,229,208)" stroke="none" stroke-width="1"/><path id="e4xgem3acbbd4" d="M1034,337.750000C1029.700000,374.080000,1030.700000,403.300000,1035.490000,416.640000C1037.490000,422.230000,1046.820000,444.140000,1048.060000,446.580000C1048.970000,448.290000,1049.710000,450.090000,1050.540000,451.810000C1051.860000,454.510000,1053.100000,457.310000,1054.340000,460.100000C1056.820000,463.980000,1060.460000,467.770000,1064.920000,467.770000C1070.290000,467.770000,1074.340000,462.540000,1076.820000,458.030000C1077.730000,456.130000,1078.480000,454.240000,1079.470000,452.260000C1080.460000,450.280000,1081.290000,448.470000,1082.200000,446.490000C1084.260000,441.980000,1092.950000,421.690000,1094.760000,416.550000C1099.560000,403.120000,1100.550000,373.990000,1096.090000,337.660000Q1065,337.790000,1034,337.750000Z" transform="matrix(1 0 0 1 -1016 -241)" fill="rgb(56,229,208)" stroke="none" stroke-width="1"/></g><path id="e4xgem3acbbd5" d="M1064,241.630000C1064.551827,241.156565,1065.276683,240.935825,1065.998724,241.021329C1066.720765,241.106834,1067.374015,241.490771,1067.800000,242.080000C1068.707217,243.374694,1068.533025,245.137860,1067.390000,246.230000C1066.838173,246.703435,1066.113317,246.924175,1065.391276,246.838671C1064.669235,246.753166,1064.015985,246.369229,1063.590000,245.780000C1062.728515,244.473662,1062.899545,242.742508,1064,241.630000Z" transform="matrix(1 0 0 1 -1032.91952508000054 -126.96846467000005)" fill="rgb(56,229,208)" stroke="none" stroke-width="1"/><path id="e4xgem3acbbd6" d="M1064,241.630000C1064.551827,241.156565,1065.276683,240.935825,1065.998724,241.021329C1066.720765,241.106834,1067.374015,241.490771,1067.800000,242.080000C1068.707217,243.374694,1068.533025,245.137860,1067.390000,246.230000C1066.838173,246.703435,1066.113317,246.924175,1065.391276,246.838671C1064.669235,246.753166,1064.015985,246.369229,1063.590000,245.780000C1062.728515,244.473662,1062.899545,242.742508,1064,241.630000Z" transform="matrix(1 0 0 1 -1037.04350234000049 -127.83710998500001)" fill="rgb(56,229,208)" stroke="none" stroke-width="1"/><path id="e4xgem3acbbd7" d="M1064,241.630000C1064.551827,241.156565,1065.276683,240.935825,1065.998724,241.021329C1066.720765,241.106834,1067.374015,241.490771,1067.800000,242.080000C1068.707217,243.374694,1068.533025,245.137860,1067.390000,246.230000C1066.838173,246.703435,1066.113317,246.924175,1065.391276,246.838671C1064.669235,246.753166,1064.015985,246.369229,1063.590000,245.780000C1062.728515,244.473662,1062.899545,242.742508,1064,241.630000Z" transform="matrix(1 0 0 1 -995.33788113500043 -136.83580849500004)" fill="rgb(56,229,208)" stroke="none" stroke-width="1"/><path id="e4xgem3acbbd8" d="M1064,241.630000C1064.551827,241.156565,1065.276683,240.935825,1065.998724,241.021329C1066.720765,241.106834,1067.374015,241.490771,1067.800000,242.080000C1068.707217,243.374694,1068.533025,245.137860,1067.390000,246.230000C1066.838173,246.703435,1066.113317,246.924175,1065.391276,246.838671C1064.669235,246.753166,1064.015985,246.369229,1063.590000,245.780000C1062.728515,244.473662,1062.899545,242.742508,1064,241.630000Z" transform="matrix(1 0 0 1 -1013.31128032000049 -124.91038595499997)" fill="rgb(56,229,208)" stroke="none" stroke-width="1"/><path id="e4xgem3acbbd9" d="M1064,241.630000C1064.551827,241.156565,1065.276683,240.935825,1065.998724,241.021329C1066.720765,241.106834,1067.374015,241.490771,1067.800000,242.080000C1068.707217,243.374694,1068.533025,245.137860,1067.390000,246.230000C1066.838173,246.703435,1066.113317,246.924175,1065.391276,246.838671C1064.669235,246.753166,1064.015985,246.369229,1063.590000,245.780000C1062.728515,244.473662,1062.899545,242.742508,1064,241.630000Z" transform="matrix(1 0 0 1 -1027.58330158000058 -135.29928225500004)" fill="rgb(56,229,208)" stroke="none" stroke-width="1"/><path id="e4xgem3acbbd10" d="M1064.864572,242.131144C1065.915025,241.279138,1067.294856,240.881889,1068.669326,241.035765C1070.043797,241.189642,1071.287317,241.880584,1072.098219,242.940975C1073.825190,245.270936,1073.493599,248.443974,1071.317747,250.409415C1070.267294,251.261420,1068.887463,251.658670,1067.512993,251.504793C1066.138522,251.350917,1064.895001,250.659974,1064.084100,249.599584C1062.444185,247.248666,1062.769755,244.133240,1064.864572,242.131144Z" transform="matrix(1 0 0 1 -1015.72216290000028 -123.71481137999999)" fill="rgb(56,229,208)" stroke="none" stroke-width="1"/><path id="e4xgem3acbbd11" d="M1051.501768,248.382303C1052.188987,247.817147,1053.097478,247.553386,1054.002113,247.656383C1054.906747,247.759381,1055.722866,248.219497,1056.248230,248.922712C1057.381427,250.441622,1057.155356,252.517237,1055.718491,253.786392C1055.034882,254.350739,1054.129641,254.614195,1053.228324,254.511116C1052.327008,254.408036,1051.514488,253.948127,1050.993219,253.245983C1049.973724,251.703794,1050.182582,249.706313,1051.501768,248.382303Z" transform="matrix(1 0 0 1 -1007.85572404000038 -143.83388800500006)" fill="rgb(56,229,208)" stroke="none" stroke-width="1"/><path id="e4xgem3acbbd12" d="M1051.501768,248.382303C1052.188987,247.817147,1053.097478,247.553386,1054.002113,247.656383C1054.906747,247.759381,1055.722866,248.219497,1056.248230,248.922712C1057.381427,250.441622,1057.155356,252.517237,1055.718491,253.786392C1055.034882,254.350739,1054.129641,254.614195,1053.228324,254.511116C1052.327008,254.408036,1051.514488,253.948127,1050.993219,253.245983C1049.973724,251.703794,1050.182582,249.706313,1051.501768,248.382303Z" transform="matrix(1 0 0 1 -1019.01400649000038 -144.51212778000018)" fill="rgb(56,229,208)" stroke="none" stroke-width="1"/><path id="e4xgem3acbbd13" d="M1051.501768,248.382303C1052.188987,247.817147,1053.097478,247.553386,1054.002113,247.656383C1054.906747,247.759381,1055.722866,248.219497,1056.248230,248.922712C1057.381427,250.441622,1057.155356,252.517237,1055.718491,253.786392C1055.034882,254.350739,1054.129641,254.614195,1053.228324,254.511116C1052.327008,254.408036,1051.514488,253.948127,1050.993219,253.245983C1049.973724,251.703794,1050.182582,249.706313,1051.501768,248.382303Z" transform="matrix(1 0 0 1 -1029.36297811500049 -129.13743624000011)" fill="rgb(56,229,208)" stroke="none" stroke-width="1"/><path id="e4xgem3acbbd14" d="M1051.501768,248.382303C1052.188987,247.817147,1053.097478,247.553386,1054.002113,247.656383C1054.906747,247.759381,1055.722866,248.219497,1056.248230,248.922712C1057.381427,250.441622,1057.155356,252.517237,1055.718491,253.786392C1055.034882,254.350739,1054.129641,254.614195,1053.228324,254.511116C1052.327008,254.408036,1051.514488,253.948127,1050.993219,253.245983C1049.973724,251.703794,1050.182582,249.706313,1051.501768,248.382303Z" transform="matrix(1 0 0 1 -987.53774323500033 -133.79530976000009)" fill="rgb(56,229,208)" stroke="none" stroke-width="1"/><path id="e4xgem3acbbd15" d="M1050.997351,248.054830C1051.383625,247.737165,1051.894273,247.588910,1052.402754,247.646803C1052.911234,247.704696,1053.369961,247.963319,1053.665259,248.358585C1054.302211,249.212340,1054.175140,250.379009,1053.367502,251.092380C1052.983257,251.409591,1052.474435,251.557675,1051.967820,251.499736C1051.461204,251.441796,1051.004500,251.183289,1050.711503,250.788625C1050.138462,249.921786,1050.255858,248.799035,1050.997351,248.054830Z" transform="matrix(1 0 0 1 -1004.33787960500047 -133.79530975500012)" fill="rgb(56,229,208)" stroke="none" stroke-width="1"/><path id="e4xgem3acbbd16" d="M1061.140000,254.430000C1061.691827,253.956565,1062.416683,253.735825,1063.138724,253.821329C1063.860765,253.906834,1064.514015,254.290771,1064.940000,254.880000C1065.847217,256.174694,1065.673025,257.937860,1064.530000,259.030000C1063.976487,259.503877,1063.250081,259.724795,1062.526457,259.639328C1061.802834,259.553860,1061.147883,259.169790,1060.720000,258.580000C1059.930370,257.255218,1060.100952,255.569711,1061.140000,254.430000Z" transform="matrix(1 0 0 1 -989.71226396500003 -148.09928225999994)" fill="rgb(56,229,208)" stroke="none" stroke-width="1"/><path id="e4xgem3acbbd17" d="M1051.470000,261C1052.357764,260.198924,1053.547923,259.819709,1054.735482,259.959535C1055.923041,260.099360,1056.992575,260.744636,1057.670000,261.730000C1059.198221,263.825848,1058.909896,266.734912,1057,268.490000C1056.112189,269.288932,1054.923813,269.667730,1053.737425,269.529955C1052.551036,269.392181,1051.481095,268.751127,1050.800000,267.770000C1049.406813,265.635755,1049.685501,262.819763,1051.470000,261Z" transform="matrix(1 0 0 1 -1009.12077981000061 -156.79959666499997)" fill="rgb(56,229,208)" stroke="none" stroke-width="1"/><path id="e4xgem3acbbd18" d="M1063.530000,271.650000C1064.313946,270.985560,1065.338914,270.677087,1066.359363,270.798478C1067.379812,270.919870,1068.303809,271.460190,1068.910000,272.290000C1070.181444,274.120854,1069.935680,276.603913,1068.330000,278.150000C1067.547732,278.813986,1066.524318,279.122271,1065.505458,279.000843C1064.486598,278.879414,1063.564305,278.339239,1062.960000,277.510000C1061.800000,275.530000,1062.050000,272.920000,1063.530000,271.650000Z" transform="matrix(1 0 0 1 -1031.76717614500012 -166.26863918999999)" fill="rgb(56,229,208)" stroke="none" stroke-width="1"/><path id="e4xgem3acbbd19" d="M1079.490000,263.630000C1080.272172,262.967846,1081.293941,262.659758,1082.311774,262.779169C1083.329606,262.898579,1084.252323,263.434791,1084.860000,264.260000C1086.131444,266.090854,1085.885680,268.573913,1084.280000,270.120000C1083.497828,270.782154,1082.476059,271.090242,1081.458226,270.970831C1080.440394,270.851421,1079.517677,270.315209,1078.910000,269.490000C1077.750000,267.510000,1078,264.890000,1079.490000,263.630000Z" transform="matrix(1 0 0 1 -1025.78194590500084 -159.62250402000001)" fill="rgb(56,229,208)" stroke="none" stroke-width="1"/><path id="e4xgem3acbbd20" d="M1067.763847,259.511935C1068.659076,258.628509,1069.836945,258.212002,1071.013007,258.363000C1072.189068,258.513998,1073.256408,259.218772,1073.957269,260.307125C1075.497199,262.722254,1075.225344,266.067002,1073.322443,268.117658C1072.427215,269.001084,1071.249345,269.417591,1070.073284,269.266593C1068.897222,269.115595,1067.829883,268.410821,1067.129021,267.322468C1065.636967,264.892579,1065.905626,261.587149,1067.763847,259.511935Z" transform="matrix(1 0 0 1 -1004.43910316000006 -154.56671999999998)" fill="rgb(56,229,208)" stroke="none" stroke-width="1"/><path id="e4xgem3acbbd21" d="M1069.091442,248.874466C1070.250096,247.886201,1071.784397,247.424846,1073.312046,247.605356C1074.839694,247.785865,1076.216841,248.591242,1077.100344,249.820811C1079.058732,252.483307,1078.673426,256.153369,1076.202485,258.372964C1075.043815,259.368543,1073.503174,259.831172,1071.971441,259.643477C1070.439708,259.455781,1069.064085,258.635799,1068.193583,257.391570C1066.561512,254.664419,1066.924596,251.220191,1069.091442,248.874466Z" transform="matrix(1 0 0 1 -1007.56048299499980 -143.59157575000000)" fill="rgb(56,229,208)" stroke="none" stroke-width="1"/><path id="e4xgem3acbbd22" d="M1044.930000,283.290000C1045.251663,283.001418,1045.682159,282.865583,1046.111196,282.917298C1046.540233,282.969012,1046.926122,283.203250,1047.170000,283.560000C1047.704790,284.318880,1047.598101,285.355903,1046.920000,285.990000C1046.617110,286.314798,1046.177252,286.475309,1045.736359,286.421927C1045.295466,286.368546,1044.906623,286.107699,1044.690000,285.720000C1044.232865,284.944037,1044.329901,283.961545,1044.930000,283.290000Z" transform="matrix(1 0 0 1 -1021.66063207000082 -176.03822995999991)" fill="rgb(56,229,208)" stroke="none" stroke-width="1"/><path id="e4xgem3acbbd23" d="M1076.768110,282.545553C1077.387831,282.014664,1078.208472,281.766826,1079.025554,281.863795C1079.842637,281.960763,1080.579222,282.393407,1081.051775,283.053924C1082.081774,284.488717,1081.876986,286.447839,1080.571544,287.648088C1079.951823,288.178978,1079.131182,288.426815,1078.314099,288.329846C1077.497016,288.232878,1076.760431,287.800234,1076.287878,287.139717C1075.392550,285.673018,1075.587940,283.803814,1076.768110,282.545553Z" transform="matrix(1 0 0 1 -1014.00093297000024 -171.06200932499991)" fill="rgb(56,229,208)" stroke="none" stroke-width="1"/><script><![CDATA[!function(t,n){"object"==typeof exports&&"undefined"!=typeof module?module.exports=n():"function"==typeof define&&define.amd?define(n):(t=t||self).__SVGATOR_PLAYER__=n()}(this,(function(){"use strict";function t(n){return(t="function"==typeof Symbol&&"symbol"==typeof Symbol.iterator?function(t){return typeof t}:function(t){return t&&"function"==typeof Symbol&&t.constructor===Symbol&&t!==Symbol.prototype?"symbol":typeof t})(n)}function n(t,n){if(!(t instanceof n))throw new TypeError("Cannot call a class as a function")}function r(t,n){for(var r=0;r<n.length;r++){var e=n[r];e.enumerable=e.enumerable||!1,e.configurable=!0,"value"in e&&(e.writable=!0),Object.defineProperty(t,e.key,e)}}function e(t,n,e){return n&&r(t.prototype,n),e&&r(t,e),t}function i(t){return(i=Object.setPrototypeOf?Object.getPrototypeOf:function(t){return t.__proto__||Object.getPrototypeOf(t)})(t)}function o(t,n){return(o=Object.setPrototypeOf||function(t,n){return t.__proto__=n,t})(t,n)}function u(t,n){return!n||"object"!=typeof n&&"function"!=typeof n?function(t){if(void 0===t)throw new ReferenceError("this hasn't been initialised - super() hasn't been called");return t}(t):n}function a(t){var n=function(){if("undefined"==typeof Reflect||!Reflect.construct)return!1;if(Reflect.construct.sham)return!1;if("function"==typeof Proxy)return!0;try{return Date.prototype.toString.call(Reflect.construct(Date,[],(function(){}))),!0}catch(t){return!1}}();return function(){var r,e=i(t);if(n){var o=i(this).constructor;r=Reflect.construct(e,arguments,o)}else r=e.apply(this,arguments);return u(this,r)}}function l(t,n,r){return(l="undefined"!=typeof Reflect&&Reflect.get?Reflect.get:function(t,n,r){var e=function(t,n){for(;!Object.prototype.hasOwnProperty.call(t,n)&&null!==(t=i(t)););return t}(t,n);if(e){var o=Object.getOwnPropertyDescriptor(e,n);return o.get?o.get.call(r):o.value}})(t,n,r||t)}var f=Math.abs;function s(t){return t}function c(t,n,r){var e=1-r;return 3*r*e*(t*e+n*r)+r*r*r}function h(){var t=arguments.length>0&&void 0!==arguments[0]?arguments[0]:0,n=arguments.length>1&&void 0!==arguments[1]?arguments[1]:0,r=arguments.length>2&&void 0!==arguments[2]?arguments[2]:1,e=arguments.length>3&&void 0!==arguments[3]?arguments[3]:1;return t<0||t>1||r<0||r>1?null:f(t-n)<=1e-5&&f(r-e)<=1e-5?s:function(i){if(i<=0)return t>0?i*n/t:0===n&&r>0?i*e/r:0;if(i>=1)return r<1?1+(i-1)*(e-1)/(r-1):1===r&&t<1?1+(i-1)*(n-1)/(t-1):1;for(var o,u=0,a=1;u<a;){var l=c(t,r,o=(u+a)/2);if(f(i-l)<1e-5)break;l<i?u=o:a=o}return c(n,e,o)}}function v(){return 1}function y(t){return 1===t?1:0}function d(){var t=arguments.length>0&&void 0!==arguments[0]?arguments[0]:1,n=arguments.length>1&&void 0!==arguments[1]?arguments[1]:0;if(1===t){if(0===n)return y;if(1===n)return v}var r=1/t;return function(t){return t>=1?1:(t+=n*r)-t%r}}function g(t){var n=arguments.length>1&&void 0!==arguments[1]?arguments[1]:2;if(Number.isInteger(t))return t;var r=Math.pow(10,n);return Math.round(t*r)/r}var p=Math.PI/180;function m(t,n,r){return t>=.5?r:n}function w(t,n,r){return 0===t||n===r?n:t*(r-n)+n}function b(t,n,r){var e=w(t,n,r);return e<=0?0:e}function k(t,n,r){return 0===t?n:1===t?r:{x:w(t,n.x,r.x),y:w(t,n.y,r.y)}}function x(t,n,r){var e=function(t,n,r){return Math.round(w(t,n,r))}(t,n,r);return e<=0?0:e>=255?255:e}function A(t,n,r){return 0===t?n:1===t?r:{r:x(t,n.r,r.r),g:x(t,n.g,r.g),b:x(t,n.b,r.b),a:w(t,null==n.a?1:n.a,null==r.a?1:r.a)}}function _(t,n,r){if(0===t)return n;if(1===t)return r;var e=n.length;if(e!==r.length)return m(t,n,r);for(var i=[],o=0;o<e;o++)i.push(A(t,n[o],r[o]));return i}function S(t,n){for(var r=[],e=0;e<t;e++)r.push(n);return r}function O(t,n){if(--n<=0)return t;var r=(t=Object.assign([],t)).length;do{for(var e=0;e<r;e++)t.push(t[e])}while(--n>0);return t}var M,j=function(){function t(r){n(this,t),this.list=r,this.length=r.length}return e(t,[{key:"setAttribute",value:function(t,n){for(var r=this.list,e=0;e<this.length;e++)r[e].setAttribute(t,n)}},{key:"removeAttribute",value:function(t){for(var n=this.list,r=0;r<this.length;r++)n[r].removeAttribute(t)}},{key:"style",value:function(t,n){for(var r=this.list,e=0;e<this.length;e++)r[e].style[t]=n}}]),t}(),F=/-./g,P=function(t,n){return n.toUpperCase()};function I(t){return"function"==typeof t?t:m}function q(t){return t?"function"==typeof t?t:Array.isArray(t)?function(t){var n=arguments.length>1&&void 0!==arguments[1]?arguments[1]:s;if(!Array.isArray(t))return n;switch(t.length){case 1:return d(t[0])||n;case 2:return d(t[0],t[1])||n;case 4:return h(t[0],t[1],t[2],t[3])||n}return n}(t,null):function(t,n){var r=arguments.length>2&&void 0!==arguments[2]?arguments[2]:s;switch(t){case"linear":return s;case"steps":return d(n.steps||1,n.jump||0)||r;case"bezier":case"cubic-bezier":return h(n.x1||0,n.y1||0,n.x2||0,n.y2||0)||r}return r}(t.type,t.value,null):null}function B(t,n,r){var e=arguments.length>3&&void 0!==arguments[3]&&arguments[3],i=n.length-1;if(t<=n[0].t)return e?[0,0,n[0].v]:n[0].v;if(t>=n[i].t)return e?[i,1,n[i].v]:n[i].v;var o,u=n[0],a=null;for(o=1;o<=i;o++){if(!(t>n[o].t)){a=n[o];break}u=n[o]}return null==a?e?[i,1,n[i].v]:n[i].v:u.t===a.t?e?[o,1,a.v]:a.v:(t=(t-u.t)/(a.t-u.t),u.e&&(t=u.e(t)),e?[o,t,r(t,u.v,a.v)]:r(t,u.v,a.v))}function R(t,n){var r=arguments.length>2&&void 0!==arguments[2]?arguments[2]:null;return t&&t.length?"function"!=typeof n?null:("function"!=typeof r&&(r=null),function(e){var i=B(e,t,n);return null!=i&&r&&(i=r(i)),i}):null}function E(t,n){return t.t-n.t}function T(n,r,e,i,o){var u,a="@"===e[0],l="#"===e[0],f=M[e],s=m;switch(a?(u=e.substr(1),e=u.replace(F,P)):l&&(e=e.substr(1)),t(f)){case"function":if(s=f(i,o,B,q,e,a,r,n),l)return s;break;case"string":s=R(i,I(f));break;case"object":if((s=R(i,I(f.i),f.f))&&"function"==typeof f.u)return f.u(r,s,e,a,n)}return s?function(t,n,r){var e=arguments.length>3&&void 0!==arguments[3]&&arguments[3];if(e)return t instanceof j?function(e){return t.style(n,r(e))}:function(e){return t.style[n]=r(e)};if(Array.isArray(n)){var i=n.length;return function(e){var o=r(e);if(null==o)for(var u=0;u<i;u++)t[u].removeAttribute(n);else for(var a=0;a<i;a++)t[a].setAttribute(n,o)}}return function(e){var i=r(e);null==i?t.removeAttribute(n):t.setAttribute(n,i)}}(r,e,s,a):null}function z(n,r,e,i){if(!i||"object"!==t(i))return null;var o=null,u=null;return Array.isArray(i)?u=function(t){if(!t||!t.length)return null;for(var n=0;n<t.length;n++)t[n].e&&(t[n].e=q(t[n].e));return t.sort(E)}(i):(u=i.keys,o=i.data||null),u?T(n,r,e,u,o):null}function C(t,n,r){if(!r)return null;var e=[];for(var i in r)if(r.hasOwnProperty(i)){var o=z(t,n,i,r[i]);o&&e.push(o)}return e.length?e:null}function D(t,n){if(!n.duration||n.duration<0)return null;var r=function(t,n){if(!n)return null;var r=[];if(Array.isArray(n))for(var e=n.length,i=0;i<e;i++){var o=n[i];if(2===o.length){var u=null;if("string"==typeof o[0])u=t.getElementById(o[0]);else if(Array.isArray(o[0])){u=[];for(var a=0;a<o[0].length;a++)if("string"==typeof o[0][a]){var l=t.getElementById(o[0][a]);l&&u.push(l)}u=u.length?1===u.length?u[0]:new j(u):null}if(u){var f=C(t,u,o[1]);f&&(r=r.concat(f))}}}else for(var s in n)if(n.hasOwnProperty(s)){var c=t.getElementById(s);if(c){var h=C(t,c,n[s]);h&&(r=r.concat(h))}}return r.length?r:null}(t,n.elements);return r?function(t,n){var r=arguments.length>2&&void 0!==arguments[2]?arguments[2]:1/0,e=arguments.length>3&&void 0!==arguments[3]?arguments[3]:1,i=arguments.length>4&&void 0!==arguments[4]&&arguments[4],o=arguments.length>5&&void 0!==arguments[5]?arguments[5]:1,u=t.length,a=e>0?n:0;i&&r%2==0&&(a=n-a);var l=null;return function(f,s){var c=f%n,h=1+(f-c)/n;s*=e,i&&h%2==0&&(s=-s);var v=!1;if(h>r)c=a,v=!0,-1===o&&(c=e>0?0:n);else if(s<0&&(c=n-c),c===l)return!1;l=c;for(var y=0;y<u;y++)t[y](c);return v}}(r,n.duration,n.iterations||1/0,n.direction||1,!!n.alternate,n.fill||1):null}function N(t,n){if(M=n,!t||!t.root||!Array.isArray(t.animations))return null;var r=window.document.getElementById(t.root);if(!r)return null;var e=t.animations.map((function(t){return D(r,t)})).filter((function(t){return!!t}));return e.length?{element:r,animations:e,animationSettings:t.animationSettings,options:t.options||void 0}:null}var L=function(){function t(r,e){var i=arguments.length>2&&void 0!==arguments[2]?arguments[2]:{};n(this,t),this._id=0,this._running=!1,this._rollingBack=!1,this._animations=r,this.duration=e.duration,this.alternate=e.alternate,this.fill=e.fill,this.iterations=e.iterations,this.direction=i.direction||1,this.speed=i.speed||1,this.fps=i.fps||100,this.offset=i.offset||0,this.rollbackStartOffset=0}return e(t,[{key:"_rollback",value:function(){var t=this,n=1/0,r=null;this.rollbackStartOffset=this.offset,this._rollingBack||(this._rollingBack=!0,this._running=!0);this._id=window.requestAnimationFrame((function e(i){if(t._rollingBack){null==r&&(r=i);var o=i-r,u=t.rollbackStartOffset-o,a=Math.round(u*t.speed);if(a>t.duration&&n!=1/0){var l=!!t.alternate&&a/t.duration%2>1,f=a%t.duration;a=(f+=l?t.duration:0)||t.duration}var s=t.fps?1e3/t.fps:0,c=Math.max(0,a);if(c<n-s){t.offset=c,n=c;for(var h=t._animations,v=h.length,y=0;y<v;y++)h[y](c,t.direction)}var d=!1;if(t.iterations>0&&-1===t.fill){var g=t.iterations*t.duration,p=g==a;a=p?0:a,t.offset=p?0:t.offset,d=a>g}a>0&&t.offset>=a&&!d?t._id=window.requestAnimationFrame(e):t.stop()}}))}},{key:"_start",value:function(){var t=this,n=arguments.length>0&&void 0!==arguments[0]?arguments[0]:0,r=-1/0,e=null,i={},o=function o(u){t._running=!0,null==e&&(e=u);var a=Math.round((u-e+n)*t.speed),l=t.fps?1e3/t.fps:0;if(a>r+l&&!t._rollingBack){t.offset=a,r=a;for(var f=t._animations,s=f.length,c=0,h=0;h<s;h++)i[h]?c++:(i[h]=f[h](a,t.direction),i[h]&&c++);if(c===s)return void t._stop()}t._id=window.requestAnimationFrame(o)};this._id=window.requestAnimationFrame(o)}},{key:"_stop",value:function(){this._id&&window.cancelAnimationFrame(this._id),this._running=!1,this._rollingBack=!1}},{key:"play",value:function(){!this._rollingBack&&this._running||(this._rollingBack=!1,this.rollbackStartOffset>this.duration&&(this.offset=this.rollbackStartOffset-(this.rollbackStartOffset-this.offset)%this.duration,this.rollbackStartOffset=0),this._start(this.offset))}},{key:"stop",value:function(){this._stop(),this.offset=0,this.rollbackStartOffset=0;var t=this.direction,n=this._animations;window.requestAnimationFrame((function(){for(var r=0;r<n.length;r++)n[r](0,t)}))}},{key:"reachedToEnd",value:function(){return this.iterations>0&&this.offset>=this.iterations*this.duration}},{key:"restart",value:function(){this._stop(),this.offset=0,this._start()}},{key:"pause",value:function(){this._stop()}},{key:"reverse",value:function(){this.direction=-this.direction}}],[{key:"build",value:function(n,r){return(n=N(n,r))?{el:n.element,options:n.options||{},player:new t(n.animations,n.animationSettings,n.options)}:null}}]),t}();!function(){for(var t=0,n=["ms","moz","webkit","o"],r=0;r<n.length&&!window.requestAnimationFrame;++r)window.requestAnimationFrame=window[n[r]+"RequestAnimationFrame"],window.cancelAnimationFrame=window[n[r]+"CancelAnimationFrame"]||window[n[r]+"CancelRequestAnimationFrame"];window.requestAnimationFrame||(window.requestAnimationFrame=function(n){var r=Date.now(),e=Math.max(0,16-(r-t)),i=window.setTimeout((function(){n(r+e)}),e);return t=r+e,i},window.cancelAnimationFrame=window.clearTimeout)}();var V=/\.0+$/g;function $(t){return Number.isInteger(t)?t+"":t.toFixed(6).replace(V,"")}function G(t){var n=arguments.length>1&&void 0!==arguments[1]?arguments[1]:" ";return t&&t.length?t.map($).join(n):""}function H(t){return t?null==t.a||t.a>=1?"rgb("+t.r+","+t.g+","+t.b+")":"rgba("+t.r+","+t.g+","+t.b+","+t.a+")":"transparent"}var Q={f:null,i:function(t,n,r){return 0===t?n:1===t?r:{x:b(t,n.x,r.x),y:b(t,n.y,r.y)}},u:function(t,n){return function(r){var e=n(r);t.setAttribute("rx",$(e.x)),t.setAttribute("ry",$(e.y))}}},U={f:null,i:function(t,n,r){return 0===t?n:1===t?r:{width:b(t,n.width,r.width),height:b(t,n.height,r.height)}},u:function(t,n){return function(r){var e=n(r);t.setAttribute("width",$(e.width)),t.setAttribute("height",$(e.height))}}},Y=Math.sin,Z=Math.cos,J=Math.acos,K=Math.asin,W=Math.tan,X=Math.atan2,tt=Math.PI/180,nt=180/Math.PI,rt=Math.sqrt,et=function(){function t(){var r=arguments.length>0&&void 0!==arguments[0]?arguments[0]:1,e=arguments.length>1&&void 0!==arguments[1]?arguments[1]:0,i=arguments.length>2&&void 0!==arguments[2]?arguments[2]:0,o=arguments.length>3&&void 0!==arguments[3]?arguments[3]:1,u=arguments.length>4&&void 0!==arguments[4]?arguments[4]:0,a=arguments.length>5&&void 0!==arguments[5]?arguments[5]:0;n(this,t),this.m=[r,e,i,o,u,a],this.i=null,this.w=null,this.s=null}return e(t,[{key:"point",value:function(t,n){var r=this.m;return{x:r[0]*t+r[2]*n+r[4],y:r[1]*t+r[3]*n+r[5]}}},{key:"translateSelf",value:function(){var t=arguments.length>0&&void 0!==arguments[0]?arguments[0]:0,n=arguments.length>1&&void 0!==arguments[1]?arguments[1]:0;if(!t&&!n)return this;var r=this.m;return r[4]+=r[0]*t+r[2]*n,r[5]+=r[1]*t+r[3]*n,this.w=this.s=this.i=null,this}},{key:"rotateSelf",value:function(){var t=arguments.length>0&&void 0!==arguments[0]?arguments[0]:0;if(t%=360){var n=Y(t*=tt),r=Z(t),e=this.m,i=e[0],o=e[1];e[0]=i*r+e[2]*n,e[1]=o*r+e[3]*n,e[2]=e[2]*r-i*n,e[3]=e[3]*r-o*n,this.w=this.s=this.i=null}return this}},{key:"scaleSelf",value:function(){var t=arguments.length>0&&void 0!==arguments[0]?arguments[0]:1,n=arguments.length>1&&void 0!==arguments[1]?arguments[1]:1;if(1!==t||1!==n){var r=this.m;r[0]*=t,r[1]*=t,r[2]*=n,r[3]*=n,this.w=this.s=this.i=null}return this}},{key:"skewSelf",value:function(t,n){if(n%=360,(t%=360)||n){var r=this.m,e=r[0],i=r[1],o=r[2],u=r[3];t&&(t=W(t*tt),r[2]+=e*t,r[3]+=i*t),n&&(n=W(n*tt),r[0]+=o*n,r[1]+=u*n),this.w=this.s=this.i=null}return this}},{key:"resetSelf",value:function(){var t=arguments.length>0&&void 0!==arguments[0]?arguments[0]:1,n=arguments.length>1&&void 0!==arguments[1]?arguments[1]:0,r=arguments.length>2&&void 0!==arguments[2]?arguments[2]:0,e=arguments.length>3&&void 0!==arguments[3]?arguments[3]:1,i=arguments.length>4&&void 0!==arguments[4]?arguments[4]:0,o=arguments.length>5&&void 0!==arguments[5]?arguments[5]:0,u=this.m;return u[0]=t,u[1]=n,u[2]=r,u[3]=e,u[4]=i,u[5]=o,this.w=this.s=this.i=null,this}},{key:"recomposeSelf",value:function(){var t=arguments.length>0&&void 0!==arguments[0]?arguments[0]:null,n=arguments.length>1&&void 0!==arguments[1]?arguments[1]:null,r=arguments.length>2&&void 0!==arguments[2]?arguments[2]:null,e=arguments.length>3&&void 0!==arguments[3]?arguments[3]:null,i=arguments.length>4&&void 0!==arguments[4]?arguments[4]:null;return this.isIdentity||this.resetSelf(),t&&(t.x||t.y)&&this.translateSelf(t.x,t.y),n&&this.rotateSelf(n),r&&(r.x&&this.skewSelf(r.x,0),r.y&&this.skewSelf(0,r.y)),!e||1===e.x&&1===e.y||this.scaleSelf(e.x,e.y),i&&(i.x||i.y)&&this.translateSelf(i.x,i.y),this}},{key:"decompose",value:function(){var t=arguments.length>0&&void 0!==arguments[0]?arguments[0]:0,n=arguments.length>1&&void 0!==arguments[1]?arguments[1]:0,r=this.m,e=r[0]*r[0]+r[1]*r[1],i=[[r[0],r[1]],[r[2],r[3]]],o=rt(e);if(0===o)return{origin:{x:r[4],y:r[5]},translate:{x:t,y:n},scale:{x:0,y:0},skew:{x:0,y:0},rotate:0};i[0][0]/=o,i[0][1]/=o;var u=r[0]*r[3]-r[1]*r[2]<0;u&&(o=-o);var a=i[0][0]*i[1][0]+i[0][1]*i[1][1];i[1][0]-=i[0][0]*a,i[1][1]-=i[0][1]*a;var l=rt(i[1][0]*i[1][0]+i[1][1]*i[1][1]);if(0===l)return{origin:{x:r[4],y:r[5]},translate:{x:t,y:n},scale:{x:o,y:0},skew:{x:0,y:0},rotate:0};i[1][0]/=l,i[1][1]/=l,a/=l;var f=0;return i[1][1]<0?(f=J(i[1][1])*nt,i[0][1]<0&&(f=360-f)):f=K(i[0][1])*nt,u&&(f=-f),a=X(a,rt(i[0][0]*i[0][0]+i[0][1]*i[0][1]))*nt,{origin:{x:r[4],y:r[5]},translate:{x:t,y:n},scale:{x:o,y:l},skew:{x:a,y:0},rotate:f}}},{key:"toString",value:function(){return null===this.s&&(this.s="matrix("+this.m.map(ot).join(" ")+")"),this.s}},{key:"determinant",get:function(){var t=this.m;return t[0]*t[3]-t[1]*t[2]}},{key:"isIdentity",get:function(){if(null===this.i){var t=this.m;this.i=1===t[0]&&0===t[1]&&0===t[2]&&1===t[3]&&0===t[4]&&0===t[5]}return this.i}}]),t}(),it=/\.0+$/;function ot(t){return Number.isInteger(t)?t:t.toFixed(14).replace(it,"")}Object.freeze({M:2,L:2,Z:0,H:1,V:1,C:6,Q:4,T:2,S:4,A:7});function ut(t,n,r){return t+(n-t)*r}function at(t,n,r){var e=arguments.length>3&&void 0!==arguments[3]&&arguments[3],i={x:ut(t.x,n.x,r),y:ut(t.y,n.y,r)};return e&&(i.a=lt(t,n)),i}function lt(t,n){return Math.atan2(n.y-t.y,n.x-t.x)}function ft(t,n,r,e){var i=1-e;return i*i*t+2*i*e*n+e*e*r}function st(t,n,r,e){return 2*(1-e)*(n-t)+2*e*(r-n)}function ct(t,n,r,e){var i=arguments.length>4&&void 0!==arguments[4]&&arguments[4],o={x:ft(t.x,n.x,r.x,e),y:ft(t.y,n.y,r.y,e)};return i&&(o.a=ht(t,n,r,e)),o}function ht(t,n,r,e){return Math.atan2(st(t.y,n.y,r.y,e),st(t.x,n.x,r.x,e))}function vt(t,n,r,e,i){var o=i*i;return i*o*(e-t+3*(n-r))+3*o*(t+r-2*n)+3*i*(n-t)+t}function yt(t,n,r,e,i){var o=1-i;return 3*(o*o*(n-t)+2*o*i*(r-n)+i*i*(e-r))}function dt(t,n,r,e,i){var o=arguments.length>5&&void 0!==arguments[5]&&arguments[5],u={x:vt(t.x,n.x,r.x,e.x,i),y:vt(t.y,n.y,r.y,e.y,i)};return o&&(u.a=gt(t,n,r,e,i)),u}function gt(t,n,r,e,i){return Math.atan2(yt(t.y,n.y,r.y,e.y,i),yt(t.x,n.x,r.x,e.x,i))}function pt(t,n,r){var e=arguments.length>3&&void 0!==arguments[3]&&arguments[3];if(wt(n)){if(bt(r))return ct(n,r.start,r,t,e)}else if(wt(r)){if(n.end)return ct(n,n.end,r,t,e)}else{if(n.end)return r.start?dt(n,n.end,r.start,r,t,e):ct(n,n.end,r,t,e);if(r.start)return ct(n,r.start,r,t,e)}return at(n,r,t,e)}function mt(t,n,r){var e=pt(t,n,r,!0);return e.a=function(t){var n=arguments.length>1&&void 0!==arguments[1]&&arguments[1];return n?t+Math.PI:t}(e.a)/p,e}function wt(t){return!t.type||"corner"===t.type}function bt(t){return null!=t.start&&!wt(t)}var kt=new et;var xt={f:$,i:w},At={f:$,i:function(t,n,r){var e=w(t,n,r);return e<=0?0:e>=1?1:e}};function _t(t,n,r,e,i,o,u,a){return n=function(t,n,r){for(var e,i,o,u=t.length-1,a={},l=0;l<=u;l++)(e=t[l]).e&&(e.e=n(e.e)),e.v&&"g"===(i=e.v).t&&i.r&&(o=r.getElementById(i.r))&&(a[i.r]=o.querySelectorAll("stop"));return a}(t,e,a),function(e){var i,o=r(e,t,St);return o?"c"===o.t?H(o.v):"g"===o.t?(n[o.r]&&function(t,n){for(var r=0,e=t.length;r<e;r++)t[r].setAttribute("stop-color",H(n[r]))}(n[o.r],o.v),(i=o.r)?"url(#"+i+")":"none"):"none":"none"}}function St(t,n,r){if(0===t)return n;if(1===t)return r;if(n&&r){var e=n.t;if(e===r.t)switch(n.t){case"c":return{t:e,v:A(t,n.v,r.v)};case"g":if(n.r===r.r)return{t:e,v:_(t,n.v,r.v),r:n.r}}}return m(t,n,r)}var Ot={fill:_t,"fill-opacity":At,stroke:_t,"stroke-opacity":At,"stroke-width":xt,"stroke-dashoffset":{f:$,i:w},"stroke-dasharray":{f:function(t){var n=arguments.length>1&&void 0!==arguments[1]?arguments[1]:" ";return t&&t.length>0&&(t=t.map((function(t){return Math.floor(1e4*t)/1e4}))),G(t,n)},i:function(t,n,r){var e,i,o,u=n.length,a=r.length;if(u!==a)if(0===u)n=S(u=a,0);else if(0===a)a=u,r=S(u,0);else{var l=(o=(e=u)*(i=a)/function(t,n){for(var r;n;)r=n,n=t%n,t=r;return t||1}(e,i))<0?-o:o;n=O(n,Math.floor(l/u)),r=O(r,Math.floor(l/a)),u=a=l}for(var f=[],s=0;s<u;s++)f.push(g(b(t,n[s],r[s]),6));return f}},opacity:At,transform:function(n,r,e,i){if(!(n=function(n,r){if(!n||"object"!==t(n))return null;var e=!1;for(var i in n)n.hasOwnProperty(i)&&(n[i]&&n[i].length?(n[i].forEach((function(t){t.e&&(t.e=r(t.e))})),e=!0):delete n[i]);return e?n:null}(n,i)))return null;var o=function(t,i,o){var u=arguments.length>3&&void 0!==arguments[3]?arguments[3]:null;return n[t]?e(i,n[t],o):r&&r[t]?r[t]:u};return r&&r.a&&n.o?function(t){var r=e(t,n.o,mt);return kt.recomposeSelf(r,o("r",t,w,0)+r.a,o("k",t,k),o("s",t,k),o("t",t,k)).toString()}:function(t){return kt.recomposeSelf(o("o",t,pt,null),o("r",t,w,0),o("k",t,k),o("s",t,k),o("t",t,k)).toString()}},r:xt,"#size":U,"#radius":Q,_:function(t,n){if(Array.isArray(t))for(var r=0;r<t.length;r++)this[t[r]]=n;else this[t]=n}};return function(t){!function(t,n){if("function"!=typeof n&&null!==n)throw new TypeError("Super expression must either be null or a function");t.prototype=Object.create(n&&n.prototype,{constructor:{value:t,writable:!0,configurable:!0}}),n&&o(t,n)}(u,t);var r=a(u);function u(){return n(this,u),r.apply(this,arguments)}return e(u,null,[{key:"build",value:function(t){var n=l(i(u),"build",this).call(this,t,Ot),r=(n.el,n.options,n.player);return function(t){t.play()}(r),r}}]),u}(L)}));
__SVGATOR_PLAYER__.build({"root":"e4xgem3acbbd1","animations":[{"duration":3000,"direction":1,"iterations":1,"fill":1,"alternate":false,"elements":{"e4xgem3acbbd5":{"transform":{"data":{"t":{"x":-1065.7112939550002,"y":-243.93}},"keys":{"o":[{"t":0,"v":{"x":32.79176887499973,"y":116.96153532999996,"type":"corner"}},{"t":1000,"v":{"x":41.2706647449997,"y":43.561012019999914,"type":"corner"}}]}}},"e4xgem3acbbd6":{"transform":{"data":{"t":{"x":-1065.7112939550002,"y":-243.93}},"keys":{"o":[{"t":0,"v":{"x":28.667791614999718,"y":116.092890015,"type":"corner"}},{"t":1000,"v":{"x":54.49801628999973,"y":35.975166649999984,"type":"corner"}}]}}},"e4xgem3acbbd7":{"transform":{"data":{"t":{"x":-1065.7112939550002,"y":-243.93}},"keys":{"o":[{"t":0,"v":{"x":70.37341281999976,"y":107.09419150499998,"type":"corner"}},{"t":1000,"v":{"x":41.27066474999965,"y":7.874337689999981,"type":"corner"}}]}}},"e4xgem3acbbd8":{"transform":{"data":{"t":{"x":-1065.7112939550002,"y":-243.93}},"keys":{"o":[{"t":0,"v":{"x":52.40001363499968,"y":119.01961404500004,"type":"corner"}},{"t":1000,"v":{"x":39.185184234999696,"y":25.441160149999998,"type":"corner"}}]}}},"e4xgem3acbbd9":{"transform":{"data":{"t":{"x":-1065.7112939550002,"y":-243.93}},"keys":{"o":[{"t":0,"v":{"x":38.1279923749997,"y":108.63071774499997,"type":"corner"}},{"t":1000,"v":{"x":30.708983519999695,"y":37.707563939999915,"type":"corner"}}]}}},"e4xgem3acbbd10":{"transform":{"data":{"t":{"x":-1065.7112939550002,"y":-243.93}},"keys":{"o":[{"t":0,"v":{"x":49.98913105499987,"y":120.21518862000002,"type":"corner"}},{"t":1000,"v":{"x":23.438125814999733,"y":20.17415690000004,"type":"corner"}}]}}},"e4xgem3acbbd11":{"transform":{"data":{"t":{"x":-1053.01802161,"y":-252.80971365000005}},"keys":{"o":[{"t":0,"v":{"x":45.16229756999959,"y":108.975825645,"type":"corner"}},{"t":1000,"v":{"x":39.18518423999957,"y":72.22419200499994,"type":"corner"}}]}}},"e4xgem3acbbd12":{"transform":{"data":{"t":{"x":-1053.01802161,"y":-252.80971365000005}},"keys":{"o":[{"t":0,"v":{"x":34.004015119999565,"y":108.29758586999986,"type":"corner"}},{"t":1000,"v":{"x":25.20811856999954,"y":83.18853165499979,"type":"corner"}}]}}},"e4xgem3acbbd13":{"transform":{"data":{"t":{"x":-1053.01802161,"y":-252.80971365000005}},"keys":{"o":[{"t":0,"v":{"x":23.655043494999564,"y":123.67227740999992,"type":"corner"}},{"t":1000,"v":{"x":39.185184239999515,"y":90.0870696249998,"type":"corner"}}]}}},"e4xgem3acbbd14":{"transform":{"data":{"t":{"x":-1053.01802161,"y":-252.80971365000005}},"keys":{"o":[{"t":0,"v":{"x":65.48027837499961,"y":119.01440388999995,"type":"corner"}},{"t":1000,"v":{"x":65.28192841499953,"y":90.0870696249998,"type":"corner"}}]}}},"e4xgem3acbbd15":{"transform":{"data":{"t":{"x":-1053.01802161,"y":-252.80971365000005}},"keys":{"o":[{"t":0,"v":{"x":48.680142004999574,"y":119.01440389499994,"type":"corner"}},{"t":1000,"v":{"x":55.66841536499935,"y":9.07773206499979,"type":"corner"}}]}}},"e4xgem3acbbd16":{"transform":{"data":{"t":{"x":-1062.87290918,"y":-256.73031625999994}},"keys":{"o":[{"t":0,"v":{"x":73.16064521500007,"y":108.63103399999999,"type":"corner"}},{"t":1000,"v":{"x":71.8783163600001,"y":69.97602399999998,"type":"corner"}}]}}},"e4xgem3acbbd17":{"transform":{"data":{"t":{"x":-1054.2830773800001,"y":-264.744394775}},"keys":{"o":[{"t":0,"v":{"x":45.162297569999474,"y":107.94479811000001,"type":"corner"}},{"t":1000,"v":{"x":53.641193444999466,"y":22.51443611000001,"type":"corner"}}]}}},"e4xgem3acbbd18":{"transform":{"data":{"t":{"x":-1065.9761442349995,"y":-274.899673185}},"keys":{"o":[{"t":0,"v":{"x":34.208968089999495,"y":108.63103399500001,"type":"corner"}},{"t":1000,"v":{"x":29.59394684499953,"y":57.687117025000035,"type":"corner"}}]}}},"e4xgem3acbbd19":{"transform":{"data":{"t":{"x":-1081.9265211050003,"y":-266.875}},"keys":{"o":[{"t":0,"v":{"x":56.144575199999586,"y":107.25249598,"type":"corner"}},{"t":1000,"v":{"x":69.23181981999983,"y":40.63428798,"type":"corner"}}]}}},"e4xgem3acbbd20":{"transform":{"data":{"t":{"x":-1072.11606086,"y":-261.435}},"keys":{"o":[{"t":0,"v":{"x":67.67695770000003,"y":106.86828000000001,"type":"corner"}},{"t":1000,"v":{"x":60.44678625500009,"y":70.151357035,"type":"corner"}}]}}},"e4xgem3acbbd21":{"transform":{"data":{"t":{"x":-1076.7923028199998,"y":-249.29556945500002}},"keys":{"o":[{"t":0,"v":{"x":69.23181982500003,"y":105.703993705,"type":"corner"}},{"t":1000,"v":{"x":73.26114529500016,"y":7.312186884999944,"type":"corner"}}]}}},"e4xgem3acbbd22":{"transform":{"data":{"t":{"x":-1045.9565653950003,"y":-284.6692639599999}},"keys":{"o":[{"t":0,"v":{"x":24.295933324999474,"y":108.63103399999999,"type":"corner"}},{"t":1000,"v":{"x":28.040871779999524,"y":9.038307724999996,"type":"corner"}}]}}},"e4xgem3acbbd23":{"transform":{"data":{"t":{"x":-1077.2849101999998,"y":-277.9650000049999}},"keys":{"o":[{"t":0,"v":{"x":63.28397722999956,"y":106.90299068,"type":"corner"}},{"t":1000,"v":{"x":55.1969829299994,"y":37.62351815999996,"type":"corner"}}]}}}}}],"options":{"start":"load","hover":"freeze","click":"freeze","scroll":25,"exportedIds":"unique","title":"Icon color"},"animationSettings":{"duration":3000,"direction":1,"iterations":1,"fill":1,"alternate":false}})]]></script></svg>