<svg xmlns="http://www.w3.org/2000/svg" viewBox="0 0 1816.91 386.87"><defs><style>.cls-1,.cls-2{fill:#38e5d0;}.cls-1{stroke:#38e5d0;stroke-miterlimit:10;}</style></defs><g id="Text_color" data-name="Text color"><path class="cls-1" d="M82.65,559.32q11.7,20.25,30.38,30.15t42.52,9.9a84.74,84.74,0,0,0,27.9-4.5,71,71,0,0,0,22.73-12.6,59.21,59.21,0,0,0,15.3-19.57,58,58,0,0,0,5.62-25.88q0-16.64-7-27.45a55.88,55.88,0,0,0-18.68-17.77,137.67,137.67,0,0,0-26.32-11.93q-14.62-4.94-30.15-9.9a321.24,321.24,0,0,1-30.15-11.25A100.77,100.77,0,0,1,88.5,442.1a73.15,73.15,0,0,1-18.67-25.43q-7-15.29-7-37.8,0-21.14,8.33-37.57a80.24,80.24,0,0,1,22.5-27.45A100.12,100.12,0,0,1,126.3,297.2a132,132,0,0,1,38.7-5.63,125.21,125.21,0,0,1,48.38,9.23q22.27,9.22,38.47,30.82L226.2,350.07Q215,334.34,199.88,326.45t-35.78-7.88a97.11,97.11,0,0,0-27.45,3.83,68.57,68.57,0,0,0-22.72,11.25A55.51,55.51,0,0,0,98.4,352.32q-5.85,11.26-5.85,26.55,0,23.86,12.15,36.68a85.68,85.68,0,0,0,30.38,20.25,322.54,322.54,0,0,0,39.6,13.05,191.92,191.92,0,0,1,39.6,15.07,85.43,85.43,0,0,1,30.37,26.33q12.15,16.88,12.15,46.57,0,21.6-8.1,38.25a84,84,0,0,1-21.82,28.13,94.21,94.21,0,0,1-31.73,17.32,120.08,120.08,0,0,1-37.35,5.85q-31.5,0-58.05-11T54.3,578.22Z" transform="translate(-53.59 -241)"/><path class="cls-1" d="M325.6,459q0-36.45,12.15-67.05a159.69,159.69,0,0,1,33.75-52.87,153.33,153.33,0,0,1,52-34.88q30.38-12.59,66.82-12.6t66.83,12.6a153.29,153.29,0,0,1,52,34.88,159.69,159.69,0,0,1,33.75,52.87Q655,422.54,655,459t-12.15,67.28a159.09,159.09,0,0,1-33.75,53.1,150.46,150.46,0,0,1-52,34.65q-30.37,12.38-66.83,12.37T423.48,614a150.51,150.51,0,0,1-52-34.65,159.09,159.09,0,0,1-33.75-53.1Q325.6,495.42,325.6,459Zm29.7,0a158.88,158.88,0,0,0,9.45,55.35,131.42,131.42,0,0,0,27,44.55,124.86,124.86,0,0,0,42.53,29.7q25,10.8,56,10.8t56-10.8a124.82,124.82,0,0,0,42.52-29.7,131.42,131.42,0,0,0,27-44.55,166.82,166.82,0,0,0,0-110.7,131.42,131.42,0,0,0-27-44.55,124.82,124.82,0,0,0-42.52-29.7q-25-10.8-56-10.8t-56,10.8a124.86,124.86,0,0,0-42.53,29.7,131.42,131.42,0,0,0-27,44.55A158.88,158.88,0,0,0,355.3,459Z" transform="translate(-53.59 -241)"/><path class="cls-1" d="M957,494.46a207.07,207.07,0,0,1-5.85,49.75,114.66,114.66,0,0,1-19.57,42q-13.74,18.25-36,29.21t-54.68,11q-32.4,0-54.67-11t-36-29.21a114.52,114.52,0,0,1-19.58-42,207.07,207.07,0,0,1-5.85-49.75V295h29.7V486.7a233.73,233.73,0,0,0,3.15,37A112.8,112.8,0,0,0,770,560.19,76.62,76.62,0,0,0,796.08,588q16.88,11,44.77,11t44.78-11a76.7,76.7,0,0,0,26.1-27.84,113,113,0,0,0,12.37-36.52,233.73,233.73,0,0,0,3.15-37V295H957Z" transform="translate(-53.59 -241)"/><path class="cls-1" d="M1160.85,467a169.05,169.05,0,0,0,27.88-6.54,83.88,83.88,0,0,0,26.74-14.26,76,76,0,0,0,20.11-25q8-15.44,8-39.27,0-21.49-6.85-36.47a77.72,77.72,0,0,0-17.37-24.78,73.75,73.75,0,0,0-23.77-15,144.91,144.91,0,0,0-26-7.48,175.09,175.09,0,0,0-23.77-2.8q-11-.47-17.36-.47h-19.19q2.43,14.19,4.87,28.39l23.46-.34q23.76,0,38.62,6.08t23.08,15a47.79,47.79,0,0,1,11.2,19.17,60.36,60.36,0,0,1,0,37.4,47.72,47.72,0,0,1-11.2,19.17q-8.22,8.88-23.08,15t-38.62,6.07l-16.36-.07q-4,14-8.12,28h0l16.71.07,91,157.09H1255Z" transform="translate(-53.59 -241)"/><path class="cls-1" d="M1592.59,569.32q-23,31-53.1,44.55t-65.25,13.5q-36.45,0-66.82-12.37a150.51,150.51,0,0,1-52-34.65,159.09,159.09,0,0,1-33.75-53.1q-12.15-30.83-12.15-67.28t12.15-67.05a159.69,159.69,0,0,1,33.75-52.87,153.33,153.33,0,0,1,52-34.88q30.38-12.59,66.82-12.6a158.69,158.69,0,0,1,60.53,11.48q28.11,11.47,49.27,38.47l-24.3,20.25q-14.85-22.49-38-32.85a115.53,115.53,0,0,0-47.48-10.35q-31,0-56,10.8a124.86,124.86,0,0,0-42.53,29.7,131.42,131.42,0,0,0-27,44.55,166.82,166.82,0,0,0,0,110.7,131.42,131.42,0,0,0,27,44.55,124.86,124.86,0,0,0,42.53,29.7q25,10.8,56,10.8a116.67,116.67,0,0,0,50.63-11.92,122,122,0,0,0,23.62-15.3,97.76,97.76,0,0,0,19.8-22.28Z" transform="translate(-53.59 -241)"/><path class="cls-1" d="M1662,295h200.55v28.05h-170V440.86h159.33v28.05H1692.61V598H1870v28H1662Z" transform="translate(-53.59 -241)"/></g><g id="Cup_Full_Color" data-name="Cup Full Color"><path class="cls-2" d="M1082.14,613.3a7.74,7.74,0,0,1-5.71-2.71c-7.85-8.83-7.44-37.33-7-67.71.09-7,.17-14.34.17-21.38,0-27.95,8-45.62,16.62-64.37,4.87-10.64,9.83-21.56,13.88-35.08,11.33-37.78-2.39-123.71-3-127.41l-.17-1.08h-63.07l-.17,1.08c-.58,3.7-14.22,89.46-3,127.41,4,13.52,9,24.44,13.88,35.08,8.6,18.75,16.62,36.42,16.62,64.37,0,7,.08,14.34.17,21.38.41,30.29.9,58.88-7,67.71a7.47,7.47,0,0,1-5.71,2.61v.1c-19,1-32.65,3.6-32.65,6.66,0,3.88,22.16,7,49.27,7,27.28,0,49.27-3.16,49.27-7C1114.87,616.81,1101.23,614.19,1082.14,613.3ZM1049.7,354.93c-4.67.6-10.79.23-15,2.43.71-.37-.1-9.18-.1-10.21s-.46-7.15-.17-9.41H1034l3.54-33.28h54.69l3.86,33.18h-.53c.5,2-.17,8.66-.17,9.7s-.71,9.86-.1,10.21c-3.8-2.17-8.84-3-13.13-3.73-5-.82-10.35-.55-15.43-.36C1061,353.68,1055.37,354.21,1049.7,354.93Z" transform="translate(-53.59 -241)"/><path class="cls-2" d="M1034,337.75c-4.3,36.33-3.3,65.55,1.49,78.89,2,5.59,11.33,27.5,12.57,29.94.91,1.71,1.65,3.51,2.48,5.23,1.32,2.7,2.56,5.5,3.8,8.29,2.48,3.88,6.12,7.67,10.58,7.67,5.37,0,9.42-5.23,11.9-9.74.91-1.9,1.66-3.79,2.65-5.77s1.82-3.79,2.73-5.77c2.06-4.51,10.75-24.8,12.56-29.94,4.8-13.43,5.79-42.56,1.33-78.89Q1065,337.79,1034,337.75Z" transform="translate(-53.59 -241)"/><path class="cls-2" d="M1075.77,247.94a1.51,1.51,0,0,1,2.23.27,1.85,1.85,0,0,1-.25,2.44,1.5,1.5,0,0,1-2.23-.28A2.07,2.07,0,0,1,1075.77,247.94Z" transform="translate(-53.59 -241)"/><path class="cls-2" d="M1064,241.63a2.6,2.6,0,0,1,3.8.45,3.2,3.2,0,0,1-.41,4.15,2.6,2.6,0,0,1-3.8-.45A3.31,3.31,0,0,1,1064,241.63Z" transform="translate(-53.59 -241)"/><path class="cls-2" d="M1052,251.46a1.52,1.52,0,0,1,2.24.27,1.86,1.86,0,0,1-.25,2.43,1.51,1.51,0,0,1-2.23-.27A2,2,0,0,1,1052,251.46Z" transform="translate(-53.59 -241)"/><path class="cls-2" d="M1061.14,254.43a2.6,2.6,0,0,1,3.8.45,3.2,3.2,0,0,1-.41,4.15,2.61,2.61,0,0,1-3.81-.45A3.5,3.5,0,0,1,1061.14,254.43Z" transform="translate(-53.59 -241)"/><path class="cls-2" d="M1051.47,261a4.15,4.15,0,0,1,6.2.73,5.1,5.1,0,0,1-.67,6.76,4.16,4.16,0,0,1-6.2-.72A5.43,5.43,0,0,1,1051.47,261Z" transform="translate(-53.59 -241)"/><path class="cls-2" d="M1063.53,271.65a3.7,3.7,0,0,1,5.38.64,4.54,4.54,0,0,1-.58,5.86,3.69,3.69,0,0,1-5.37-.64C1061.8,275.53,1062.05,272.92,1063.53,271.65Z" transform="translate(-53.59 -241)"/><path class="cls-2" d="M1079.49,263.63a3.7,3.7,0,0,1,5.37.63,4.54,4.54,0,0,1-.58,5.86,3.7,3.7,0,0,1-5.37-.63C1077.75,267.51,1078,264.89,1079.49,263.63Z" transform="translate(-53.59 -241)"/><path class="cls-2" d="M1070.31,259a2.74,2.74,0,0,1,4,.45,3.36,3.36,0,0,1-.41,4.42,2.74,2.74,0,0,1-4-.45A3.43,3.43,0,0,1,1070.31,259Z" transform="translate(-53.59 -241)"/><path class="cls-2" d="M1044.93,283.29a1.5,1.5,0,0,1,2.24.27,1.86,1.86,0,0,1-.25,2.43,1.39,1.39,0,0,1-2.23-.27A2.07,2.07,0,0,1,1044.93,283.29Z" transform="translate(-53.59 -241)"/><path class="cls-2" d="M1076.27,276.61a1.51,1.51,0,0,1,2.23.27,1.87,1.87,0,0,1-.25,2.44,1.51,1.51,0,0,1-2.23-.27A2.05,2.05,0,0,1,1076.27,276.61Z" transform="translate(-53.59 -241)"/></g></svg>